@startuml gg_analysis

top to bottom direction

hide circle
skinparam nodesep 120
skinparam ranksep 120

class Concept <<Category>>
class SemanticAspect <<Category>>

class Aspect
class Object

SemanticAspect --> Concept : "semanticAspectOf"
SemanticAspect <|-- Aspect
Concept <|-- Object
Aspect --> Object : "inheresIn"



@enduml